<?xml version="1.0" encoding="utf-8"?>
<!-- Generator: Adobe Illustrator 21.1.0, SVG Export Plug-In . SVG Version: 6.00 Build 0)  -->
<svg version="1.1" id="Capa_1" xmlns="http://www.w3.org/2000/svg" xmlns:xlink="http://www.w3.org/1999/xlink" x="0px" y="0px"
	 viewBox="0 0 512 512" style="enable-background:new 0 0 512 512;" xml:space="preserve">
<style type="text/css">
	.st0{fill:#1F7F5C;}
</style>
<g>
	<g>
		<path class="st0" d="M317.5,405.7v-65c22.1-17.9,36.3-45.3,36.3-76c0-26.3-10.2-62.8-25.9-93.2c-20.1-38.8-45.6-60.1-71.8-60.1
			s-51.7,21.3-71.8,60.1c-15.7,30.3-25.9,66.9-25.9,93.2c0,30.7,14.2,58,36.3,76v65h-104V512h324.7V405.7H317.5z M188.3,264.7
			c0-21.1,9.3-53.8,22.6-79.4c14.3-27.5,31.2-43.9,45.2-43.9c14,0,30.9,16.4,45.2,43.9c13.3,25.6,22.6,58.2,22.6,79.4
			c0,32.2-22.6,59.2-52.8,66.1v-46.9h-30v46.9C210.9,323.9,188.3,296.9,188.3,264.7z M287.5,357.3v48.4h-62.9v-48.4
			c9.9,3.4,20.4,5.2,31.4,5.2C267.1,362.5,277.7,360.6,287.5,357.3z M385.4,482H120.6v-46.3h264.7V482z"/>
	</g>
</g>
<g>
	<g>
		<rect x="241" class="st0" width="30" height="65.8"/>
	</g>
</g>
<g>
	<g>
		<rect x="357" y="67.9" transform="matrix(0.656 -0.7547 0.7547 0.656 71.4998 322.7631)" class="st0" width="65.8" height="30"/>
	</g>
</g>
<g>
	<g>
		
			<rect x="425.2" y="193.6" transform="matrix(0.9903 -0.1393 0.1393 0.9903 -24.5851 65.8446)" class="st0" width="65.8" height="30"/>
	</g>
</g>
<g>
	<g>
		
			<rect x="412.2" y="315.1" transform="matrix(0.5446 -0.8387 0.8387 0.5446 -97.3688 516.7686)" class="st0" width="30" height="65.8"/>
	</g>
</g>
<g>
	<g>
		<rect x="107.1" y="50" transform="matrix(0.7547 -0.656 0.656 0.7547 -24.4679 100.4404)" class="st0" width="30" height="65.8"/>
	</g>
</g>
<g>
	<g>
		
			<rect x="38.9" y="175.6" transform="matrix(0.1392 -0.9903 0.9903 0.1392 -160.0887 232.9036)" class="st0" width="30" height="65.8"/>
	</g>
</g>
<g>
	<g>
		
			<rect x="51.9" y="333" transform="matrix(0.8387 -0.5446 0.5446 0.8387 -175.8566 102.3427)" class="st0" width="65.8" height="30"/>
	</g>
</g>
</svg>
