<?xml version="1.0" encoding="utf-8"?>
<!-- Generator: Adobe Illustrator 21.1.0, SVG Export Plug-In . SVG Version: 6.00 Build 0)  -->
<svg version="1.1" id="Слой_1" xmlns="http://www.w3.org/2000/svg" xmlns:xlink="http://www.w3.org/1999/xlink" x="0px" y="0px"
	 viewBox="0 0 512 512" style="enable-background:new 0 0 512 512;" xml:space="preserve">
<style type="text/css">
	.st0{fill:#FFFFFF;}
</style>
<path class="st0" d="M381,0L92.6,288.3l-18.7,60.1L35.3,387L48,399.8l-48,48L64.2,512l48-48l12.7,12.7l38.6-38.6l60.1-18.7L512,131
	L381,0z M469.6,131l-40.5,40.5l-88.6-88.6L381,42.4L469.6,131z M127,296.3l192.3-192.3l88.6,88.6L215.7,385L127,296.3z M64.2,469.6
	l-21.8-21.8L69.2,421L91,442.8L64.2,469.6z M147.6,411.6L125,434.3L77.7,387l22.7-22.7l12.4-39.9l74.8,74.8L147.6,411.6z"/>
</svg>
