<?xml version="1.0" encoding="utf-8"?>
<!-- Generator: Adobe Illustrator 21.1.0, SVG Export Plug-In . SVG Version: 6.00 Build 0)  -->
<svg version="1.1" id="Слой_1" xmlns="http://www.w3.org/2000/svg" xmlns:xlink="http://www.w3.org/1999/xlink" x="0px" y="0px"
	 viewBox="0 0 400 400" style="enable-background:new 0 0 400 400;" xml:space="preserve">
<style type="text/css">
	.st0{fill:none;stroke:#000000;stroke-miterlimit:10;}
</style>
<line class="st0" x1="263.3" y1="82.6" x2="263.3" y2="99.5"/>
<line class="st0" x1="263.3" y1="83" x2="252" y2="99.1"/>
<line class="st0" x1="251.9" y1="99.1" x2="263.3" y2="99.1"/>
<line class="st0" x1="263.3" y1="99.1" x2="263.3" y2="112.5"/>
<line class="st0" x1="263.3" y1="83" x2="268.9" y2="83"/>
<line class="st0" x1="262.9" y1="121.4" x2="281.8" y2="121.4"/>
<line class="st0" x1="274.6" y1="82.1" x2="288.3" y2="105.3"/>
<line class="st0" x1="263.3" y1="108.4" x2="263.3" y2="121.4"/>
<line class="st0" x1="314.5" y1="121.4" x2="324.2" y2="121.4"/>
<line class="st0" x1="281.4" y1="121.4" x2="316.5" y2="121.4"/>
<line class="st0" x1="322.9" y1="71.6" x2="281" y2="121.4"/>
<line class="st0" x1="268.9" y1="83" x2="275.4" y2="83"/>
<line class="st0" x1="287.5" y1="103.5" x2="290.7" y2="109.8"/>
<line class="st0" x1="262.9" y1="121.2" x2="310.8" y2="164.2"/>
<line class="st0" x1="324.6" y1="71" x2="324.6" y2="186"/>
<line class="st0" x1="323.7" y1="121.4" x2="323.8" y2="121.4"/>
<line class="st0" x1="322.9" y1="71.4" x2="352.8" y2="71.4"/>
<line class="st0" x1="323.7" y1="121.4" x2="352.8" y2="71.4"/>
<line class="st0" x1="356" y1="85.7" x2="344.7" y2="85.7"/>
<line class="st0" x1="336.6" y1="99.1" x2="356" y2="85.7"/>
<line class="st0" x1="306" y1="179.3" x2="324.2" y2="120.9"/>
<line class="st0" x1="324.6" y1="185.6" x2="306" y2="179.3"/>
</svg>
